<svg xmlns="http://www.w3.org/2000/svg" xmlns:xlink="http://www.w3.org/1999/xlink" id="Layer_1" x="0px" y="0px" viewBox="0 0 1200 1200" style="enable-background:new 0 0 1200 1200;" xml:space="preserve">
<style type="text/css">
	.st0{display:none;}
	.st1{display:inline;fill:#174B93;}
	.st2{display:inline;fill:#164C93;}
	.st3{display:inline;fill:#164B93;}
	.st4{display:inline;fill:#1C1C1C;}
	.st5{display:inline;fill:#141414;}
	.st6{display:inline;fill:#181818;}
	.st7{display:inline;fill:#171717;}
	.st8{display:inline;fill:#1A1A1A;}
	.st9{display:inline;fill:#1B1B1B;}
	.st10{display:inline;fill:#1F1F1F;}
	.st11{display:inline;fill:#232323;}
	.st12{display:inline;fill:#191919;}
	.st13{display:inline;fill:#212121;}
	.st14{display:inline;fill:#131313;}
	.st15{display:inline;fill:#C76230;}
	.st16{display:inline;fill:#F1742B;}
	.st17{display:inline;fill:#F8A61C;}
	.st18{display:inline;fill:#C6612E;}
	.st19{display:inline;fill:#F17024;}
	.st20{display:inline;fill:#2F2B2C;}
	.st21{display:inline;fill:#302C2D;}
	.st22{display:inline;fill:#332F30;}
	.st23{display:inline;fill:#2E2A2B;}
	.st24{display:inline;fill:#3A3637;}
	.st25{display:inline;fill:#2D292A;}
	.st26{display:inline;fill:#F1752B;}
	.st27{display:inline;fill:#F1752A;}
	.st28{display:inline;fill:#F1742A;}
	.st29{display:inline;fill:#3B3738;}
	.st30{display:inline;fill:#F8AA25;}
	.st31{display:inline;fill:#F8A924;}
	.st32{display:inline;fill:#F8A925;}
	.st33{fill:#E12128;}
	.st34{fill:#040404;}
	.st35{fill:#050505;}
	.st36{fill:#060606;}
	.st37{fill:#0D0D0D;}
	.st38{fill:#101010;}
	.st39{fill:#090909;}
	.st40{fill:#141414;}
	.st41{fill:#0B0B0B;}
	.st42{fill:#030303;}
	.st43{fill:#DE1012;}
	.st44{fill:#E33439;}
	.st45{fill:#DC0406;}
	.st46{fill:#DC0C0F;}
	.st47{fill:#E22D31;}
	.st48{fill:#DC0507;}
</style>
<g class="st0">
	<path class="st1" d="M169.07,787.88c1.09-2.24,2.34-4.41,3.25-6.72c6.19-15.62,22.15-25.79,38.68-24.57   c19.79,1.46,33.79,11.9,37.77,28.15c3.01,12.33-0.63,22.02-11.06,29.23c-4.94,3.42-9.95,6.74-15.13,10.24   c2.29,4.97,6.39,4.99,10.37,4.78c17.08-0.93,33.69-15.06,37.39-31.65c4.2-18.83-3.69-36.94-20.1-45.94   c-2.88-1.58-5.9-2.97-8.97-4.16c-6.1-2.36-8.6-6.64-8.54-13.19c0.28-29.57,0.4-59.15,0.36-88.72c-0.01-7.87-0.37-15.79-1.33-23.59   c-1.35-10.92-6.42-15.7-17.32-17.48c-3.79-0.62-9.11-0.56-8.64-5.5c0.49-5.13,5.87-3.75,9.55-3.57   c29.04,1.38,57.51-1.63,85.12-11.1c3.8-1.3,7.45-3.06,11.18-4.58c5.95-2.43,8.21-1.03,8.2,5.48c-0.02,16.16-0.22,32.32-0.29,48.48   c-0.21,46.84-0.35,93.67-0.62,140.51c-0.18,31.73-16.85,52.51-47.93,59.54c-22.34,5.05-44.72,5.15-67.08-0.33   c-16.76-4.11-28.8-13.24-33.73-30.38c-0.18-0.62-0.76-1.13-1.15-1.69C169.07,796.7,169.07,792.29,169.07,787.88z"></path>
	<path class="st1" d="M594.73,616.48c10.81-6.24,20.53-12.08,30.46-17.53c13.9-7.64,28.49-13.5,44.37-15.43   c4.7-0.57,9.55-0.8,14.26-0.35c14.99,1.42,23.09,10.74,25.27,28.41c0.26,2.12,0.59,4.24,0.94,6.74   c11.46-6.67,22.2-13.31,33.31-19.27c12.59-6.76,25.36-13.41,39.73-15.51c5.74-0.84,11.78-1.02,17.52-0.24   c15.19,2.06,22.94,10.74,24.19,27.33c0.94,12.61,1.08,25.29,1.21,37.94c0.19,18.73-0.28,37.47,0.2,56.19   c0.21,8.18,1.6,16.41,3.35,24.43c1.58,7.24,6.33,10.05,13.81,9.89c2.55-0.05,5.25-0.24,7.6,0.52c1.51,0.49,3.52,2.62,3.47,3.96   c-0.06,1.65-1.68,4.04-3.22,4.66c-2.44,1-5.38,1.07-8.1,1.07c-103.38-0.01-206.77-0.08-310.15-0.14   c-13.76-0.01-27.51,0.02-41.27-0.02c-1.82,0-3.98,0.29-5.38-0.56c-1.82-1.1-4.1-3.16-4.16-4.88c-0.05-1.4,2.65-3.59,4.53-4.21   c2.71-0.9,5.78-0.77,8.71-0.95c6.37-0.39,10.35-3.88,11.6-9.87c1.34-6.43,2.7-13.01,2.75-19.53c0.2-26.07,0-52.14-0.33-78.21   c-0.06-4.51-1.1-9.11-2.33-13.49c-2.45-8.72-6.58-11.8-15.76-12.68c-1.45-0.14-3.09-0.13-4.28-0.82c-1.84-1.06-3.36-2.67-5.02-4.04   c1.95-1.57,3.83-4.37,5.85-4.48c8.96-0.49,17.97,0.08,26.94-0.27c24.14-0.96,47.72-4.78,70.08-14.53c7.79-3.4,9.84-1.89,9.85,6.39   C594.74,596.49,594.73,606.01,594.73,616.48z M594.38,679.75c0,15.42,0.01,30.84,0,46.26c0,6.43,2.22,11.26,8.67,13.82   c13.01,5.16,22.15,0.07,24.16-13.76c0.26-1.81,0.38-3.65,0.4-5.48c0.19-23.67,0.5-47.34,0.43-71.01   c-0.02-8.02-0.51-16.12-1.76-24.03c-0.97-6.11-5.4-8.41-11.51-7.06c-3.92,0.87-7.8,2.05-11.56,3.44c-7.17,2.65-8.8,5.1-8.81,12.69   C594.35,649.66,594.37,664.71,594.38,679.75z M708.68,678.18c0.48,0,0.97,0,1.45,0c0,16.5-0.07,33,0.04,49.5   c0.04,5.11,2.22,9.21,7.1,11.48c11.91,5.53,21.94,0.23,23.94-12.71c0.45-2.89,0.79-5.83,0.81-8.75   c0.18-23.26,0.38-46.52,0.33-69.78c-0.02-6.94-0.32-13.95-1.37-20.8c-1.22-7.93-6.5-10.8-14.07-8.26   c-4.15,1.39-8.08,3.42-12.18,4.97c-4.59,1.74-6.21,4.88-6.14,9.77C708.82,648.47,708.68,663.33,708.68,678.18z"></path>
	<path class="st2" d="M1012.91,630.12c-2.87-2.29-6.06-4.27-8.53-6.92c-6.11-6.57-11.35-14.04-17.94-20.06   c-9.56-8.73-20.96-13.56-34.34-10.61c-7.38,1.63-13.54,5.28-15.29,13.26c-1.69,7.67,2.37,13.61,8.35,17.19   c7.77,4.65,16.25,8.2,24.63,11.73c11.77,4.95,24.6,8,35.45,14.43c26.36,15.61,33.63,50.38,16.22,73.58   c-11.21,14.95-27.18,22.57-44.99,26.54c-20.67,4.61-41.51,4.07-62.44,1.89c-11.29-1.17-22.69-1.41-34.04-2.02   c-5.39-0.29-9.45,1.92-12.7,6.28c-1.26,1.69-3.59,2.59-5.43,3.85c-1.18-1.94-3.1-3.77-3.43-5.84c-2.89-18.3-5.58-36.63-8.06-54.98   c-0.26-1.96,1.24-4.15,1.93-6.24c1.92,1.27,4.56,2.09,5.66,3.87c10.73,17.24,23.56,32.34,41.8,42.05   c10.81,5.75,22.01,9.22,34.28,4.6c8.14-3.06,13.27-8.79,14-17.4c0.7-8.29-3.43-14.63-10.77-18.3c-5.7-2.85-11.76-5.04-17.77-7.23   c-13.58-4.96-27.4-9.31-40.8-14.7c-18.05-7.26-27.19-21.49-27.74-40.6c-0.53-18.28,5.75-34,21.7-44.35   c20.34-13.2,42.83-18.6,67.01-17.44c13.75,0.66,27.51,0.85,41.26,1.47c7.89,0.36,13.86-2.17,17.84-9.35   c0.99-1.79,3.99-4.09,5.32-3.69c1.95,0.59,4.35,3.25,4.63,5.29c2.41,17.41,4.39,34.87,6.49,52.32   C1014.45,629.21,1013.68,629.66,1012.91,630.12z"></path>
	<path class="st1" d="M447.15,651.23c0.99,24.36,1.63,48.74,3.12,73.07c0.71,11.56,5.27,14.86,16.81,14.9   c2.2,0.01,4.59-0.43,6.54,0.28c1.55,0.57,3.68,2.66,3.58,3.92c-0.14,1.69-2.01,3.4-3.48,4.73c-0.63,0.57-2.12,0.25-3.22,0.25   c-41.85,0.15-83.69,0.29-125.54,0.4c-2.37,0.01-4.84,0.03-7.1-0.57c-1.7-0.45-4.57-2.2-4.43-2.84c0.45-2.08,1.6-4.67,3.3-5.64   c2.07-1.18,4.95-1.1,7.49-1.25c10.99-0.63,15.54-4.61,16.59-15.77c0.81-8.56,1.13-17.2,1.2-25.8c0.18-20.73,0.21-41.46,0.02-62.18   c-0.05-4.9-1.12-9.82-1.91-14.69c-1.54-9.38-7.38-14.37-16.55-15.82c-0.91-0.14-1.98,0.03-2.7-0.41c-2.25-1.39-6.06-2.86-6.2-4.56   c-0.34-4.16,3.6-4.24,6.79-4.25c8.26-0.03,16.52,0.25,24.77-0.06c25.25-0.97,49.96-4.63,73.24-15.22c6.05-2.75,8.55-1.35,8.58,4.89   c0.12,22.2,0.05,44.4,0.05,66.61C447.79,651.21,447.47,651.22,447.15,651.23z"></path>
	<path class="st3" d="M391.47,575.3c-19.01-14.76-31.08-33.22-36.14-56.11c-7.43-33.58-1.84-65.06,17.34-93.49   c16.16-23.96,29.3-49,34.71-77.65c0.06-0.31,0.39-0.58,0.86-1.25c0.49,0.46,1.05,0.8,1.33,1.29c15.58,27.4,28.33,55.83,32.33,87.53   c3.89,30.84-0.14,59.54-21.07,84.21c-5.68,6.69-10.5,14.12-15.68,21.23c-6.25,8.59-9.95,18.28-12.24,28.57   C392.54,571.36,392.05,573.05,391.47,575.3z"></path>
	<path class="st3" d="M271.24,574.42c-13.47-0.43-25.36-4.65-34.8-14.27c-16.03-16.34-13.9-42.9,4.3-57.28   c15.56-12.3,41.6-13.41,57.82-2.06c13.79,9.65,20.69,23.23,17.7,39.88c-3.24,17.98-16.09,27.63-33.09,32.11   C279.31,573.82,275.22,573.9,271.24,574.42z"></path>
	<path class="st4" d="M391.19,834.66c-6.74,0-13.58,0-20.42,0c8.52-1.22,6.53-7.71,6.57-13.07c0.07-9.72,0.02-19.45,0.02-29.17   c0-8.58,0-8.58-6.21-12.55c7.24,0,14.38,0,21.52,0c-7.81,0.49-7.04,6.11-6.9,11.25c0.12,4.34,0.37,8.67,0.51,11.85   c6.78-5.98,13.95-12.29,21.54-18.98c-2.15-1.61-3.49-2.6-5.44-4.06c6.87,0,13.07,0,18.02,0c-8.15,7.29-16.97,15.18-25.86,23.12   c6.03,6.47,11.03,12.36,16.58,17.66c5.28,5.05,11.14,9.5,16.17,13.73c-6.92,0-15.21,0-24.06,0c1.39-1.19,2.53-2.16,4.64-3.95   c-7.01-7.29-13.98-14.53-21.76-22.61c0,7.77-0.35,14.44,0.22,21.03C386.5,830.85,389.31,832.55,391.19,834.66z"></path>
	<path class="st5" d="M837.4,834.81c8.43-4.22,8.43-4.22,8.43-13.37c0-9.91,0-19.82,0-29.73c0-8.49,0-8.49-7.58-12.08   c8.22,0,16.44-0.01,24.66,0.01c1.27,0,2.55,0.31,3.82,0.28c18.41-0.36,26.58,11.21,27.43,25.66c0.92,15.65-8.48,27.32-24.51,29.02   C859.4,835.7,848.94,834.81,837.4,834.81z M854.2,830.61c1.41,0.3,2.12,0.48,2.84,0.61c14.58,2.53,24.86-4.81,27.14-19.36   c2.31-14.74-5.74-26.94-19.33-28.96c-2.46-0.36-5.16-0.1-7.55,0.58c-1.25,0.35-2.95,2.21-2.96,3.42   C854.12,801.36,854.2,815.83,854.2,830.61z"></path>
	<path class="st6" d="M716.03,780.3c-6.34,0.86-7.22,4.98-7.1,10.67c0.32,14.99,0.11,29.99,0.11,44.99   c-0.48,0.27-0.95,0.53-1.43,0.8c-11.97-14.46-23.93-28.93-36.76-44.43c0,13.09-0.31,24.92,0.29,36.7c0.11,2.1,3.96,4.02,5.83,5.78   c-5.18,0-11.21,0-17.24,0c9.05-1.53,6.87-8.53,6.92-14.4c0.06-8.26,0.02-16.52,0.02-24.79c0-11.01-0.17-11.26-10.4-14.91   c7.75-3.87,14.98-1.85,21.24,5.93c8.04,10,16.08,20.01,24.13,30.01c0.45,0.55,0.98,1.04,1.75,1.84c0.45-0.71,1.07-1.25,1.07-1.79   c0.07-10.1,0.43-20.22-0.18-30.28c-0.14-2.31-3.62-4.42-5.15-6.14C703.79,780.3,709.91,780.3,716.03,780.3z"></path>
	<path class="st7" d="M999.17,834.81c-5.9,0-11.8,0-17.7,0c6.9-1.66,5.2-7.2,5.22-11.87c0.01-4.58-0.23-9.15-0.37-13.73   c-0.1-3.46-0.55-7.15-4.73-7.53c-4.25-0.39-8.75,1.38-9.28,5.9c-0.86,7.21-0.59,14.59-0.23,21.86c0.08,1.68,2.46,3.24,3.98,5.1   c-4.98,0-9.82,0-13.52,0c0.54-3.43,1.59-7.22,1.66-11.03c0.23-11.37,0.09-22.74,0.08-34.11c0-3.7,0.15-7.54-6.54-8.11   c5.52-2.19,9.47-3.75,13.94-5.52c0,9.15,0,17.69,0,27.02c2.54-1.94,4.38-3.62,6.47-4.89c6.57-3.99,13.4-1.35,14.54,6.23   c1.01,6.65,0.71,13.5,0.91,20.27C993.72,828.73,992.89,833.54,999.17,834.81z"></path>
	<path class="st8" d="M508.1,834.64c-6.42,0-11.87,0-17.31,0c5.37-2.13,5.12-6.56,5.06-11.13c-0.13-11.37-0.03-22.74-0.05-34.11   c-0.01-3.88,0.54-8.24-5.82-8.06c4.12-1.7,8.25-3.39,12.9-5.3c0,12.53,0,24.36,0,36.35c8.02-3.83,13.25-10.43,11.25-14.63   c2.32,0,4.43,0,6.55,0c1.94,0,3.89,0,5.73,0c-5.57,4.8-10.99,9.47-16.8,14.48c6.86,7.98,13.32,15.5,19.36,22.51   c-3.8,0-9.11,0-13.82,0c0.76-8.41-7.63-11.39-10.82-17.56C504.12,823.21,500.45,829.65,508.1,834.64z"></path>
	<path class="st6" d="M799.04,823.1c1.1-8.6,8.71-15.66,5.57-25.63c3,0,6.37,0,8.68,0c-5.43,12.49-10.99,25.29-16.56,38.1   c-0.48,0.05-0.97,0.11-1.45,0.16c-3.07-7.44-6.13-14.89-9.41-22.84c-3.86,8.18-7.48,15.85-11.7,24.78   c-5.61-14.03-10.74-26.88-15.82-39.58c2.89,0,6.98,0,10.47,0c-1.95,9.97,5.53,17.27,7.13,27.26c10.03-17.15,10.1-19.85,0.51-27.76   c3.66,0,6.47,0,9.27,0c2.7,0,5.4,0,8.1,0c-5.27,2.45-4.44,5.76-2.51,9.87c2.4,5.11,4.23,10.48,6.31,15.74   C798.11,823.15,798.57,823.13,799.04,823.1z"></path>
	<path class="st4" d="M465.47,830.57c-2.63,1.75-5.07,4.3-7.95,4.94c-1.73,0.39-4.13-2.21-6.75-3.77c-1.73,0.88-4.49,2.73-7.53,3.75   c-4.85,1.63-8.74-0.21-10.87-4.81c-2.06-4.42-1.69-8.84,2.65-11.69c4.41-2.9,9.1-5.43,13.9-7.63c4.15-1.91,3.98-4.75,2.69-8.13   c-1.42-3.72-4.43-5.31-7.83-3.61c-1.72,0.86-2.18,3.98-3.56,5.81c-1.2,1.6-2.88,2.85-4.35,4.25c-0.91-1.85-3.07-4.39-2.49-5.43   c1.45-2.64,3.78-5.87,6.38-6.56c4.26-1.15,9.04-0.9,13.53-0.45c3.98,0.4,5.77,3.57,5.89,7.47c0.2,6.58,0.32,13.17,0.44,19.75   c0.06,3.28,0.2,6.41,5.71,4.04C465.36,829.2,465.41,829.89,465.47,830.57z M452.26,812.48c-3.73,2.21-6.82,4.01-9.87,5.86   c-3.25,1.97-4.76,5.01-2.94,8.32c1.01,1.84,4.43,4.29,5.52,3.79c2.8-1.29,5.96-3.68,7-6.39   C453.18,820.93,452.26,816.99,452.26,812.48z"></path>
	<path class="st9" d="M562.75,830.09c2.32-0.93,3.65-1.46,4.97-2c0.27,0.24,0.54,0.47,0.81,0.71c-1.81,2-3.34,4.43-5.5,5.91   c-3.74,2.55-6,1.4-8.76-3.68c-2.53,1.45-4.93,3.2-7.61,4.27c-4.87,1.94-9.38,0.11-11.65-4.29c-2.37-4.6-1.56-9.3,2.76-12.15   c4.1-2.71,8.52-4.99,12.98-7.1c3.3-1.56,5.52-3.83,3.68-7.17c-1.28-2.33-3.98-4.75-6.46-5.33c-3.42-0.79-4.81,2.16-5.35,5.49   c-0.25,1.53-1.49,3.22-2.78,4.13c-0.59,0.41-3.37-0.77-3.45-1.44c-0.22-1.82-0.1-4.14,0.89-5.57c3.8-5.52,15.67-7.64,20.89-3.58   c1.77,1.38,3.15,4.17,3.38,6.45c0.59,5.82,0.38,11.72,0.58,17.58C562.2,824.64,562.49,826.95,562.75,830.09z M554.91,812.89   c-3.18,1.49-5.67,2.51-8,3.82c-1.4,0.79-3.28,1.83-3.66,3.13c-0.74,2.55-1.32,5.6-0.53,7.96c0.47,1.41,4.27,3.15,5.52,2.55   c2.59-1.24,5.49-3.59,6.4-6.15C555.74,821.14,554.91,817.37,554.91,812.89z"></path>
	<path class="st8" d="M751.86,811.85c-8.4,0-16.41,0-24.37,0c-0.75,7.76,2.32,13.83,8,16.31c7.92,3.47,12.29-1.18,16.2-8.07   c-0.59,8.97-5.55,15.05-12.41,16.17c-7.3,1.2-14.51-3.2-17.29-10.56c-2.59-6.86-2.28-13.69,0.71-20.29   c3.26-7.17,11.5-10.79,19.37-8.82C748.42,798.19,751.98,803.46,751.86,811.85z M727.41,808.65c5.53,0,10.61,0,15.89,0   c-0.06-4.84-1.66-8.36-6.8-9.02C731.86,799.04,728.85,802.07,727.41,808.65z"></path>
	<path class="st6" d="M931.45,811.58c-8.03,0-16.07,0-24.03,0c-1.53,6.27,0.95,12.49,6.1,15.81c8.56,5.52,12.8-1.67,18-6.88   c-0.29,7.69-4.96,13.56-11.73,15.48c-5.83,1.65-12.76-1.11-16.3-6.48c-5.14-7.82-4.88-19.45,0.61-26.99   c4.09-5.61,12.07-7.97,18.73-5.54C928.67,799.1,931.71,804.14,931.45,811.58z M923.15,808.66c-0.78-5.41-2.57-9.3-8.1-9.06   c-5.42,0.24-7.58,4.04-8.34,9.06C912.21,808.66,917.45,808.66,923.15,808.66z"></path>
	<path class="st6" d="M572.8,799.97c2.96-1.15,7.01-2.72,11.45-4.45c0,14.3,0.6,28.16-0.18,41.95c-0.66,11.63-7,16.73-17.27,15.55   c-1.68-0.19-3.32-1.76-4.68-3.01c-0.39-0.36,0.08-2.62,0.46-2.71c2.02-0.48,4.47-1.33,6.16-0.62c7.58,3.19,8.02,3.15,8.14-5.46   c0.16-11.35,0.25-22.71-0.17-34.05C576.6,804.73,574.17,802.39,572.8,799.97z"></path>
	<path class="st10" d="M937.35,781.08c3.98-1.6,7.95-3.2,12.81-5.16c0,5.76,0,10.79,0,15.83c0,11.17-0.02,22.34,0.01,33.51   c0.01,6.33,0.22,6.6,5.76,9.6c-2.99,0-5.99,0-8.98,0c-2.86,0-5.71,0-8.57,0c5.32-1.71,4.59-5.96,4.59-9.87   c0-11.72-0.08-23.44,0.04-35.15C943.05,785.67,942.28,782.45,937.35,781.08z"></path>
	<path class="st11" d="M468.73,781.2c3.96-1.65,7.92-3.3,12.53-5.21c0.16,2.01,0.39,3.54,0.39,5.07c0.03,14.49,0,28.98,0.03,43.47   c0.01,4.15-0.84,8.84,5.33,9.96c-5.63,0-11.26,0-15.4,0c0.92-2.8,2.56-5.57,2.62-8.38c0.29-12.65,0.02-25.31,0.19-37.96   c0.05-3.95-0.55-6.66-5.92-5.43C468.57,782.2,468.65,781.7,468.73,781.2z"></path>
	<path class="st6" d="M607.53,795.54c0,10.82-0.22,20.51,0.12,30.18c0.11,3.2,1.65,6.35,2.47,9.3c-4.09,0-9.37,0-14.65,0   c5.88-2.08,4.53-6.99,4.53-11.3c-0.01-5.13-0.35-10.27-0.12-15.39c0.19-4.1-0.58-6.86-5.75-7.17   C598.19,799.46,602.26,797.75,607.53,795.54z"></path>
	<path class="st12" d="M1020.53,834.96c-5.44,0-10.88,0-16.52,0c6.84-4.63,4-11.65,3.72-17.53c-0.26-5.37,3.66-12.65-5.31-16.51   c4.47-1.79,8.52-3.42,13.05-5.23c0,10.42,0.11,20.13-0.05,29.83C1015.36,829.69,1015.66,833.28,1020.53,834.96z"></path>
	<path class="st13" d="M619.23,848.12c3.66-3.25,9.29-5.21,8.3-11.16c-2.59-1.11-5.25-1.66-6.92-3.25c-0.65-0.62,0.62-5,1.52-5.18   c2.33-0.48,5.54-0.38,7.33,0.95c3.43,2.55,3.64,8.81,0.29,12.99c-2.41,3.01-6.05,5.04-9.13,7.51   C620.15,849.36,619.69,848.74,619.23,848.12z"></path>
	<path class="st5" d="M585.52,782.06c-1.74,1.12-3.85,3.44-5.13,3.05c-1.67-0.51-3.15-3.03-3.74-4.98   c-0.21-0.69,2.51-3.22,3.81-3.16c1.73,0.08,3.39,1.87,5.08,2.93C585.52,780.62,585.52,781.34,585.52,782.06z"></path>
	<path class="st7" d="M602.56,775.25c2.73,2.37,4.41,3.83,6.09,5.28c-1.63,1.48-3.08,3.45-5,4.18c-0.7,0.27-3.2-2.23-3.61-3.8   C599.72,779.65,601.3,777.89,602.56,775.25z"></path>
	<path class="st14" d="M1018.39,780.99c-3.23,1.83-5.14,3.64-7.14,3.75c-1.1,0.06-3.07-2.65-3.29-4.29   c-0.14-1.03,2.43-3.52,3.48-3.36C1013.46,777.39,1015.26,779.11,1018.39,780.99z"></path>
</g>
<g class="st0">
	<path class="st15" d="M925.38,787.56c-28.62,6.32-55.11,1.98-74.28-23.77c-8.9-11.96-16.28-25.07-24.19-37.76   c-3.87-6.21-7.3-12.7-11.04-18.99c-4.95-8.33-16.2-12.25-24.97-8.51c-1.16,0.5-2.27,2.71-2.26,4.12   c0.17,20.55,0.27,41.11,0.96,61.65c0.31,9.31,4.05,12.5,13.36,13.7c1.58,0.2,3.15,0.57,4.73,0.67c3.5,0.22,6.2,0.86,5.93,5.48   c-0.29,5.08-3.75,4.25-6.85,4.22c-18.32-0.19-36.63-0.5-54.95-0.6c-6.21-0.04-12.42,0.33-18.62,0.64   c-3.37,0.17-5.64-0.78-5.86-4.55c-0.21-3.5,1.74-4.72,4.92-5.06c3.32-0.35,6.61-0.98,9.88-1.62c5.29-1.04,8.58-4.26,9.12-9.65   c0.75-7.6,1.59-15.23,1.62-22.85c0.16-39.22,0.14-78.45,0.01-117.68c-0.02-6.67-0.73-13.35-1.51-19.99   c-0.66-5.64-3.3-8.02-8.94-8.89c-2.99-0.46-5.99-0.86-9.01-1.1c-3.35-0.27-4.85-2.07-4.76-5.3c0.09-3.29,2.06-4.14,5.08-4.23   c25.47-0.74,50.93-1.95,76.41-2.29c16-0.21,31.77,2.21,46.54,8.98c17.84,8.19,27.52,22.44,29.07,41.72   c1.48,18.46-5.97,33.23-21.25,43.77c-4.31,2.97-9.08,5.25-13.66,7.82c-2.2,1.23-3.55,2.65-1.92,5.32   c14.19,23.23,26.88,47.42,44.05,68.73c7.96,9.87,17.07,18.1,30.27,20.17c0.74,0.12,1.41,0.69,2.11,1.05   C925.38,784.37,925.38,785.96,925.38,787.56z M788.56,642.53c-0.01,0-0.01,0-0.02,0c0,11.96-0.03,23.92,0.02,35.87   c0.01,3.07,0.08,6.68,4.18,6.88c11.14,0.54,22.44,1.25,32.97-3.37c14.49-6.36,19.38-18.96,20.51-33.58   c2.52-32.55-18.23-53.87-49.09-50.57c-6.97,0.75-8.47,2.21-8.54,9.37C788.46,618.93,788.56,630.73,788.56,642.53z"></path>
	<path class="st16" d="M584.7,325.35c1.77,3.12,3.36,6.36,5.33,9.34c7.57,11.46,8.49,23.32,2.63,35.75   c-1.56,3.3-2.96,6.68-4.32,10.06c-3.16,7.87-2.54,15.57,1.29,23.04c1.8,3.51,3.75,6.95,5.85,10.83c-2.28,1.63-4.44,3.17-7.05,5.04   c-8.47-11.93-14.31-24.2-9.65-39.08c1.42-4.53,3.18-9.02,5.32-13.26c4.85-9.6,4.08-18.67-1.68-27.55   c-1.81-2.79-3.52-5.64-5.34-8.57c1.99-1.95,3.85-3.79,5.72-5.62C583.42,325.35,584.06,325.35,584.7,325.35z"></path>
	<path class="st15" d="M654.65,676.77c2.58,0.59,5.18,1.09,7.73,1.77c21.32,5.71,37.52,17.11,41.93,40.14   c6.02,31.39-10.33,56.89-41.91,64.81c-11.18,2.8-22.91,4.4-34.43,4.66c-28.66,0.65-57.34,0.15-86.01,0.29   c-3.91,0.02-5.69-1.35-5.6-5.14c0.06-2.49,1-4.15,3.9-4.43c3.48-0.34,6.93-1.03,10.37-1.69c5.86-1.14,8.35-3.45,9.14-9.4   c0.87-6.61,1.72-13.29,1.75-19.94c0.16-39.71,0.11-79.41,0.05-119.12c-0.01-6.36-0.23-12.75-0.76-19.09   c-0.67-7.9-3.45-10.62-11.19-11.75c-2.52-0.37-5.05-0.68-7.59-0.9c-3.12-0.26-4.59-1.92-4.51-4.99c0.07-3.14,1.69-4.41,4.85-4.5   c26.43-0.75,52.85-2.02,79.28-2.27c15.64-0.15,31.13,2.07,45.51,9.06c25.57,12.42,29.3,46.48,15.59,62.36   c-4.72,5.46-11.69,9.05-17.87,13.13c-3.21,2.12-6.93,3.45-10.42,5.14C654.51,675.54,654.58,676.16,654.65,676.77z M666.19,735.28   c-0.04-22.28-10.17-37.91-29.72-45.64c-9.96-3.94-20.34-5.16-30.97-4.11c-7.58,0.74-8.32,1.61-8.35,9.16   c-0.05,14.19-0.2,28.39,0.07,42.58c0.13,6.99,0.72,14.01,1.76,20.93c1.55,10.36,7.87,15.91,18.33,16.91   c1.74,0.17,3.5,0.25,5.24,0.41C648.19,777.74,666.24,761.1,666.19,735.28z M597.19,636.68c0.01,0,0.03,0,0.04,0   c0,10.03,0.01,20.07,0,30.1c-0.01,3.98,1.5,6.39,5.91,6.23c6.16-0.22,12.41,0.24,18.49-0.57c18.39-2.44,26.98-10.49,29.58-28.83   c2.12-14.97-0.08-29.13-13.56-38.87c-8.94-6.46-19.22-7.89-29.98-7.08c-9.29,0.7-10.26,1.49-10.45,10.82   C597.04,617.88,597.19,627.28,597.19,636.68z"></path>
	<path class="st17" d="M708.06,550.02c-16.84,0-33.36,0-50.5,0c-1.39-21.51-9.64-39.65-27.67-52.37   c-12.26-8.65-26.02-12.49-41.02-11.53c-16.79,1.08-31.05,7.77-42.64,19.95c-11.6,12.18-17.24,26.9-17.68,44.31   c-8.73,0-17.1,0-25.48,0c-8.43,0-16.86,0-25.96,0c1.05-38.34,15.4-69.76,46.19-92.32c39.08-28.64,81.1-31.67,124.16-9.78   C685.36,467.55,710.6,510.8,708.06,550.02z"></path>
	<path class="st15" d="M441.1,792.94c-14.49-0.32-28.16-3.57-41.39-9.14c-6.49-2.73-11.05-7.23-12.26-14.17   c-1.81-10.32-3.15-20.72-4.47-31.11c-0.45-3.54-0.42-7.5,4.31-8.23c4.47-0.68,5.79,2.88,7.19,6.24   c4.76,11.43,10.98,21.93,20.06,30.52c12.5,11.82,27.03,15.63,43.65,10.81c17.31-5.03,25.97-22.44,20.88-41.86   c-3.13-11.93-10.75-20.46-20.85-26.93c-6.84-4.38-14.17-7.99-20.88-12.55c-9.06-6.15-18.71-11.89-26.41-19.52   c-32.71-32.45-18.89-81.58,25.7-93.27c18.47-4.84,36.68-2.54,54.86,1.38c12.59,2.72,12.72,2.82,14.62,15.77   c1.18,8.02,1.76,16.13,2.63,24.2c0.27,2.48,0.63,5.08-2.83,5.43c-3.14,0.32-6.43,0.81-7.98-3.25c-1.58-4.15-3.12-8.38-5.22-12.28   c-9.3-17.28-26.57-24.92-45.59-20.39c-19.94,4.75-29.67,26.5-20.01,44.87c4.35,8.27,10.86,14.54,18.91,19.13   c9.13,5.2,18.45,10.05,27.62,15.18c16.43,9.2,29.92,21.24,36.27,39.6c12.21,35.31-9.05,70.08-47.04,76.9   C455.69,791.56,448.36,792.07,441.1,792.94z"></path>
	<path class="st18" d="M316.71,585.04c12.9,0,25.81,0.12,38.71-0.08c3.12-0.05,4.92,0.7,5.32,3.89c0.36,2.98-0.66,4.98-3.84,5.49   c-3.46,0.56-6.93,1.02-10.36,1.71c-5.88,1.18-8.72,3.77-9.33,9.87c-0.95,9.49-1.72,19.04-1.78,28.58   c-0.21,31.88-0.21,63.76-0.01,95.64c0.07,11.77,0.68,23.55,1.48,35.3c0.55,8.1,3.94,11.26,11.88,12.42   c2.52,0.37,5.04,0.85,7.57,0.98c3.29,0.16,4.4,1.93,4.45,4.95c0.06,3.35-1.85,4.62-4.8,4.56c-10.03-0.2-20.06-0.75-30.08-0.72   c-14.97,0.05-29.93,0.45-44.9,0.78c-3.3,0.07-6.15-0.09-6.37-4.41c-0.22-4.21,2.45-5.05,5.79-5.27c0.63-0.04,1.24-0.3,1.87-0.36   c13.81-1.25,16.58-3.74,17.05-19.97c0.79-27.39,0.65-54.81,0.68-82.22c0.02-19.28-0.29-38.56-0.54-57.83   c-0.04-3.17-0.47-6.35-0.81-9.51c-1.02-9.49-3.88-12.36-13.43-13.55c-2.05-0.26-4.09-0.68-6.15-0.82c-3.49-0.24-4.6-2.19-4.47-5.43   c0.15-3.56,2.66-4.1,5.29-4.12c12.26-0.09,24.52-0.04,36.79-0.04C316.71,584.91,316.71,584.98,316.71,585.04z"></path>
	<path class="st19" d="M637.46,549.99c-29.79,0-59.19,0-89.1,0c0.45-15.44,6.37-27.72,19.22-36.35   c15.65-10.52,31.75-11.18,48.07-1.65C630.05,520.39,636.83,533.25,637.46,549.99z"></path>
	<path class="st20" d="M464.92,815.21c2.88,0,5.11,0,8.07,0c-5.32,19.48-10.57,38.69-15.8,57.85c-7.63,1.22-7.61,1.22-9.53-5.72   c-3.89-14.04-7.8-28.07-12.7-42.29c-0.48,1.52-1.02,3.02-1.44,4.56c-3.74,13.48-7.62,26.92-11.06,40.48   c-0.89,3.52-2.77,3.45-5.47,3.54c-2.84,0.1-4.1-0.65-4.87-3.67c-4.62-18.16-9.52-36.25-14.33-54.36c7.46-1.97,8.1-1.65,9.63,5.1   c2.72,11.95,5.38,23.9,8.09,35.85c0.33,1.48,0.8,2.92,2.23,4.46c2.04-7.2,4.09-14.4,6.11-21.61c1.97-7.04,4.21-14.03,5.72-21.18   c0.85-4.04,3.36-3.46,6.01-3.44c2.64,0.02,4.96-0.55,5.95,3.49c3.44,14.03,7.47,27.91,12.33,41.97   C457.52,845.3,461.19,830.35,464.92,815.21z"></path>
	<path class="st21" d="M832.63,831.29c-2.39,0.71-4.59,1.36-6.7,1.99c-7.28-12.96-18.43-16.39-29.37-9.14   c-8.09,5.36-9.25,13.68-8.68,22.41c1.5,22.96,22.91,24.07,35.3,16.31c1.31-0.82,2.19-2.94,2.49-4.6c0.42-2.31,0.11-4.75,0.11-7.64   c-5.59,0-11.07,0-16.78,0c0-2.52,0-4.52,0-6.84c8.08,0,16.12,0,24.67,0c0,6.19,0.34,12.24-0.18,18.22   c-0.19,2.15-1.99,4.83-3.86,6.05c-10.67,6.96-22.15,8.57-34.1,3.59c-12.86-5.36-19.18-20.8-15.14-36.36   c4.83-18.58,24.91-27.45,42.04-18.52C828.21,819.78,831.24,824.74,832.63,831.29z"></path>
	<path class="st22" d="M767.25,815.04c0,2.45,0,4.36,0,7c-5.64,0-11.3,0-16.96,0c-5.56,0-11.13,0-16.87,0c0,5.84,0,11.36,0,17.24   c10.43,0,20.75,0,31.4,0c0,2.5,0,4.65,0,7.36c-10.41,0-20.83,0-31.41,0c0,6.72,0,12.9,0,19.48c11.67,0,23.24,0,35.02,0   c0,2.44,0,4.47,0,6.82c-14.27,0-28.5,0-42.99,0c0-19.22,0-38.43,0-57.9C739.32,815.04,753.09,815.04,767.25,815.04z"></path>
	<path class="st23" d="M561.55,844.13c-0.33-21.83,17.03-35.13,37.63-28.83c11.86,3.63,19,15.22,18.58,30.14   c-0.57,20.02-15.46,32.09-34.89,28.27C570.15,871.19,561.78,859.6,561.55,844.13z M589.63,820.92   c-8.32,0.01-15.17,4.41-17.82,11.86c-2.34,6.57-2.7,13.36-0.9,20.15c2.29,8.62,9.26,14.18,17.94,14.49   c8.98,0.33,15.85-4.38,18.93-13.05c2.55-7.19,2.34-14.42-0.38-21.48C604.47,825.24,597.83,820.9,589.63,820.92z"></path>
	<path class="st24" d="M855.59,821.88c0,6.17,0,11.55,0,17.36c10.43,0,20.71,0,31.27,0c0,2.57,0,4.74,0,7.31   c-10.18,0-20.46,0-31.09,0c0,6.65,0,12.9,0,19.5c11.5,0,22.91,0,34.69,0c0,2.45,0,4.57,0,6.97c-14.13,0-28.26,0-42.78,0   c0-19.18,0-38.37,0-57.92c13.68,0,27.45,0,41.56,0c0,2.09,0,4.21,0,6.77C878,821.88,866.93,821.88,855.59,821.88z"></path>
	<path class="st25" d="M398.29,873.25c-8.85,0.72-8.74,0.68-11.7-6.65c-5.33-13.22-1.81-10.72-16.08-10.89   c-12.26-0.15-12.26-0.03-16.43,11.66c-2.47,6.92-2.47,6.92-10.66,5.65c5.29-13.84,10.56-27.61,15.82-41.38   c1.76-4.6,3.7-9.15,5.22-13.83c1.1-3.37,3.64-3.35,6.13-2.96c1.79,0.28,3.45,1.44,5.14,2.27c0.2,0.1,0.2,0.58,0.32,0.88   C383.39,836.26,390.74,854.52,398.29,873.25z M370.08,822.65c-3.23,9.29-6.11,17.57-9.05,26.04c6.51,0,12.32,0,18.71,0   C376.52,840,373.46,831.75,370.08,822.65z"></path>
	<path class="st23" d="M544.78,852.63c2.71,0.74,4.99,1.36,7.22,1.97c-1.69,13.32-14.28,21.92-28.48,19.71   c-14.17-2.21-22.33-12.54-22.9-29.01c-0.55-15.8,6.84-27.18,19.8-30.53c14.63-3.78,26.8,2.4,30.91,16.23   c-2.37,0.59-4.73,1.17-7.43,1.84c-3.04-8.08-8.31-12.72-17.3-12c-9.96,0.79-16.22,7.08-17.28,18.75c-0.44,4.82,0.06,9.92,1.2,14.63   c1.98,8.22,8.13,12.85,16.09,13.2c8.3,0.37,13.73-3.41,16.98-11.82C543.93,854.71,544.29,853.84,544.78,852.63z"></path>
	<path class="st16" d="M804.57,476.15c2.08,1.51,4.23,3.06,6.34,4.59c-8.51,16.29-24.51,24.34-42.89,20.52   c-15.18-3.16-27.28,0.64-36.84,12.74c-0.59,0.75-0.99,1.65-1.65,2.77c-2.86-2.26-4.93-3.9-7.42-5.87   c6.28-10.42,15.33-16.82,26.85-18.85c6.42-1.13,13.41-1.01,19.82,0.23c13.07,2.54,23.13-1.32,31.09-11.65   c0.97-1.26,2.13-2.36,3.24-3.5C803.42,476.8,803.88,476.6,804.57,476.15z"></path>
	<path class="st16" d="M562,418.35c-2.11,2.45-3.85,4.47-5.71,6.63c-14.15-11.67-22.42-25.48-17.7-44.02   c3.86-15.17,0.25-27.3-12.31-36.72c-0.85-0.64-1.46-1.59-2.41-2.66c1.62-2.13,3.14-4.13,4.95-6.51   c10.45,5.74,17.55,14.25,19.2,25.79c1.13,7.83,0.35,16.18-0.97,24.06c-1.71,10.24,1.17,18.49,7.86,25.87   C557.15,413.25,559.46,415.65,562,418.35z"></path>
	<path class="st26" d="M816.67,529.13c1.86,2.23,3.65,4.38,5.42,6.5c-15.35,14.82-30.44,16.63-43.99,10.67   c-1.45-0.64-3-1.09-4.4-1.83c-12.22-6.42-23.86-5.3-35.03,2.55c-1.17,0.82-2.46,1.46-3.71,2.14c-0.26,0.14-0.61,0.14-1.47,0.33   c-1.47-1.87-3.1-3.94-5.03-6.41c11.99-9.24,24.52-15.06,39.77-10.46c4.54,1.37,8.96,3.24,13.31,5.15   c8.87,3.88,17.29,3.29,25.35-2.09C810.05,533.57,813.21,531.45,816.67,529.13z"></path>
	<path class="st27" d="M694.17,455.89c-3.11-0.56-5.72-1.02-8.61-1.54c2.86-17.86,10.26-31.7,28.34-37.54   c1.81-0.59,3.54-1.45,5.36-2.02c11.2-3.5,17.2-11.44,19.43-22.64c0.49-2.48,1.02-4.95,1.64-7.92c2.95,0.24,5.71,0.46,8.46,0.68   c0.36,17.57-9.27,32.05-25.14,38.06c-2.08,0.79-4.15,1.62-6.27,2.29c-11.33,3.57-18.11,11.34-21.07,22.67   C695.65,450.38,694.99,452.81,694.17,455.89z"></path>
	<path class="st16" d="M490.57,461.66c-0.3,3.21-0.55,5.87-0.83,8.74c-18.63-1.5-33.56-8.33-40.28-26.87   c-5.22-14.4-15.31-21.31-30.27-21.85c-1.09-0.04-2.16-0.37-3.47-0.6c0-2.91,0-5.68,0-8.44c21.86-0.04,33.88,8,40.07,22.8   c0.8,1.9,1.85,3.7,2.61,5.62c4.4,11.09,12.84,17.04,24.29,19.18C485.17,460.69,487.65,461.13,490.57,461.66z"></path>
	<path class="st28" d="M462.98,373.46c1.05-2.91,1.96-5.4,2.84-7.84c18.27,3.7,29.39,16.28,31.75,35.52   c0.35,2.84,0.62,5.7,1.16,8.51c1.53,7.89,5.61,14.14,12.47,18.42c3.63,2.26,7.36,4.37,11.43,6.77c-1.05,2.47-2.07,4.88-3.06,7.23   c-15.6-3.1-28.26-17.31-30.42-33.82c-0.33-2.52-0.84-5.03-1.01-7.56c-0.75-10.93-6.24-18.4-16.21-22.77   C469.02,376.65,466.25,375.1,462.98,373.46z"></path>
	<path class="st16" d="M457.14,537.45c1.52,2.69,2.83,5.01,4.35,7.7c-14.26,8.2-28.6,11.79-43.95,3.56   c-3.79-2.03-7.47-4.25-11.21-6.36c-7.14-4.04-14.48-4.39-21.97-1.09c-3.91,1.73-7.76,3.6-12.12,5.64c-1.5-2.23-2.95-4.4-4.71-7.04   c10.99-8.88,22.95-11.97,36.27-8.1c4.81,1.4,9.58,3.65,13.74,6.44c11.22,7.55,22.5,7.78,34.25,1.66   C453.33,539.05,454.95,538.42,457.14,537.45z"></path>
	<path class="st27" d="M780.38,429.04c2.75,1.1,5.06,2.03,7.32,2.93c-3.36,15.83-16.29,27.64-32.39,29.84   c-1.57,0.22-3.17,0.39-4.75,0.38c-14.42-0.02-25,6.18-31.43,19.23c-0.69,1.4-1.67,2.65-2.73,4.31c-2.56-1.15-4.95-2.23-7.27-3.28   c3.61-14.8,18.16-27.12,33.64-28.75c3.48-0.37,6.95-0.82,10.44-1.01c9.35-0.48,16.29-4.79,20.95-12.87   C776.12,436.41,778.1,432.98,780.38,429.04z"></path>
	<path class="st26" d="M642.67,335.25c2.91-1.16,5.5-2.19,9.17-3.66c1.35,7.88,2.94,15.13,3.73,22.45   c0.8,7.44-2.09,14.03-6.37,20.01c-0.46,0.65-0.97,1.27-1.47,1.88c-15.83,19.52-15.83,19.52-11.86,44.63   c-2.44,0.81-4.95,1.65-7.42,2.47c-6.73-10.31-5.95-29.4,1.72-40.38c2.27-3.25,4.75-6.43,7.55-9.22   c8.69-8.63,10.94-18.65,7.24-30.19C644.16,340.71,643.5,338.13,642.67,335.25z"></path>
	<path class="st27" d="M467.82,497.37c0.27,0.59,0.63,1.14,0.76,1.73c0.43,2,0.78,4.02,1.24,6.49c-15.29,3.34-29.48,2.92-41.59-8.32   c-1.51-1.4-3.05-2.85-4.25-4.51c-9.06-12.6-20.99-16.83-35.94-12.59c-1.05,0.3-2.2,0.23-3.87,0.38c-0.74-2.64-1.48-5.28-2.21-7.9   c19.84-6.5,34.74-2.81,45.5,10.15c6.43,7.74,13.3,14.88,24.16,15.36C456.96,498.41,462.35,497.67,467.82,497.37z"></path>
	<path class="st28" d="M668.08,435.23c-2.72,0-5.36,0-8.49,0c-0.98-15.19,1.19-29.18,14.22-39.33c3.01-2.34,6.17-4.52,9.4-6.56   c9.13-5.78,13.59-14.02,13.44-24.8c-0.04-3.18-0.01-6.36-0.01-10.06c2.74-0.33,5.33-0.64,7.91-0.94c3,19.95-0.9,33.13-14.4,42.07   c-0.4,0.26-0.74,0.62-1.16,0.84c-14.82,7.75-21.99,19.77-20.5,36.65C668.55,433.7,668.27,434.32,668.08,435.23z"></path>
	<path class="st29" d="M302.03,873.06c0-19.55,0-38.62,0-58.02c2.65,0,5.09,0,7.8,0c0,16.98,0,33.68,0,50.9c9.57,0,18.88,0,28.5,0   c0,2.63,0,4.75,0,7.11C326.29,873.06,314.4,873.06,302.03,873.06z"></path>
	<path class="st29" d="M677.28,815.03c2.76,0,5.08,0,7.69,0c0,17,0,33.7,0,50.92c9.57,0,18.88,0,28.5,0c0,2.63,0,4.74,0,7.11   c-12.05,0-23.95,0-36.19,0C677.28,853.74,677.28,834.55,677.28,815.03z"></path>
	<path class="st21" d="M629.73,873.02c0-19.49,0-38.7,0-58c2.57,0,4.9,0,7.61,0c0,17.05,0,33.87,0,51.07c9.55,0,18.72,0,28.23,0   c0,2.48,0,4.58,0,6.94C653.7,873.02,641.94,873.02,629.73,873.02z"></path>
	<path class="st30" d="M621.8,369.92c-12.93,14.45-15.21,29.59-5.19,45.77c-3.1,1.58-5.47,2.79-7.8,3.97   c-10.33-13.55-10.02-35.08,0.3-48.28C612.61,366.92,616.46,369.58,621.8,369.92z"></path>
	<path class="st30" d="M522.09,382.62c-3.06,18.68,2.08,33.32,19.58,41.97c-1.84,3-3.21,5.25-4.55,7.44   c-13.81-5.18-24.45-20.39-24.8-35.1c-0.02-0.64,0-1.27,0-1.91C512.3,386.1,512.3,386.1,522.09,382.62z"></path>
	<path class="st31" d="M571.15,369.74c-8.76,17.08-6.62,32.18,7.4,45.23c-2.56,2.35-4.62,4.24-6.66,6.1   c-14.27-12.47-18.73-30.44-12.08-47.81C561.02,370.08,563.3,369.28,571.15,369.74z"></path>
	<path class="st31" d="M505.19,448.52c-0.33,1.34-0.97,3.9-1.6,6.42c-17.29-1.64-32.15-14.74-35.77-31.25   c-1-4.56-0.46-5.5,5.43-9.83c3.53,7.14,5.81,15.51,11.01,21.24C489.4,440.77,497.47,443.77,505.19,448.52z"></path>
	<path class="st30" d="M666.96,384.07c-16.64,14.64-18.11,18.32-15.65,42.07c-1.28,0.3-2.61,0.63-3.95,0.92   c-1.37,0.29-2.74,0.53-4.08,0.79c-5.59-19.78-0.87-34.46,12.63-45.83C658.57,379.77,660.39,380.2,666.96,384.07z"></path>
	<path class="st31" d="M478.12,486.81c-16.45,3.46-34.28-4.29-42.63-18.51c-2.03-3.46-1.66-4.95,3.11-11.55   c1.61,2.24,3.3,4.23,4.6,6.44c6.17,10.53,15.72,14.8,27.47,15.1C478.77,478.51,478.77,478.49,478.12,486.81z"></path>
	<path class="st31" d="M706.18,408.77c-16.81,5.73-24.46,17.91-24.31,35.65c-3.29-0.2-6.06-0.36-9.18-0.55   c0.65-15.6,4.56-29.13,18.42-37.92C698.18,401.48,699.92,401.74,706.18,408.77z"></path>
	<path class="st32" d="M418.89,508.61c11.88,13.14,26.04,14.95,41.94,7.75c1.21,3.1,2.21,5.68,3.19,8.2   c-12.75,8.28-35.42,6.18-45.67-4C415.79,518.02,415.85,515.06,418.89,508.61z"></path>
	<path class="st31" d="M706.76,470.33c-2.92-0.92-5.44-1.72-8.32-2.63c1.11-8.96,5.16-16.27,11.49-22.02   c4.05-3.68,8.85-6.81,13.8-9.17c7.92-3.78,9.77-2.73,13.94,6.01C720.46,443.87,711.4,454.53,706.76,470.33z"></path>
	<path class="st30" d="M759.8,483.42c-16.83-2.89-27.2,5.95-35.51,18.89c-2.73-1.79-5.07-3.33-7.56-4.96   c7.32-11.43,15.92-20.57,29.76-23.11C755.96,472.49,757.11,473.14,759.8,483.42z"></path>
	<path class="st30" d="M732.78,532.34c-2.34-2.23-4.37-4.16-6.59-6.27c9.66-11.37,21.68-16.38,36-15.73   c6.35,0.29,6.54,0.93,7.57,11.06C754.83,516.03,743.13,521.91,732.78,532.34z"></path>
</g>
<g>
	<path class="st33" d="M776.47,751.05c-2.07-1.04-4.21-1.97-6.2-3.15c-9.44-5.6-15.16-13.7-15.17-24.87   c-0.07-51.67,0.06-103.34,0.1-155.01c0.02-30.26,0-60.53,0.01-90.79c0-14.25,5.24-22.11,18.43-27.4c1.66-0.67,3.62-0.85,5.44-0.85   c66.82-0.04,133.63-0.05,200.45-0.03c16.32,0,32.64,0.11,48.96,0.15c15,0.04,25.42,8.92,27.62,23.85c0.64,4.35,0.84,8.8,0.84,13.2   c0.05,77.87,0.04,155.74,0.03,233.61c0,17.41-6.45,25.76-23.34,30.33c-0.39,0.11-0.67,0.62-0.99,0.95   C947.26,751.05,861.86,751.05,776.47,751.05z M887.71,612.26c-0.03-0.28-0.02-0.58-0.11-0.84c-0.03-0.1-0.28-0.17-0.42-0.17   c-16.24,0.01-32.48,0.02-48.72,0.08c-0.58,0-1.15,0.58-1.73,0.89c-0.35,1.02-0.7,2.05-1.06,3.07c-0.61,0.37-1.23,0.75-1.84,1.12   c-4.31-2.01-4.2,1.45-4.22,3.78c-0.13,15.3-0.02,30.6-0.1,45.9c-0.02,3.38,1.46,4.66,4.68,4.25c0.5,0.28,1,0.56,1.5,0.84   c-1.01,2.13-0.99,3.39,2.02,3.37c15.44-0.09,30.88,0.04,46.31-0.21c1.24-0.02,2.45-2.3,3.67-3.53c0.35-0.13,0.69-0.26,1.04-0.39   c2.52,0.21,4.18-0.23,4.16-3.46c-0.11-15.81-0.08-31.61-0.02-47.42c0.01-3.03-1.19-4.46-4.26-4.19c-0.34,0.07-0.65-0.01-0.92-0.24   C887.7,614.16,887.7,613.21,887.71,612.26z M939.81,668.34c0.33-1.6,0.93-3.2,0.93-4.8c0.06-29.43,0.06-58.85,0-88.28   c0-1.6-0.6-3.2-0.92-4.81c-1.44-0.68-2.87-1.37-4.31-2.05c-0.37,0.07-0.67-0.05-0.9-0.35c0.37-2.84-0.77-4.03-3.71-3.79   c-5.55,0.45-11.12,1.03-16.68,0.98c-25.27-0.21-50.54-0.59-75.8-1c-3.21-0.05-5.48,0.34-4.74,4.33c0.06,0.35-0.05,0.63-0.33,0.84   c-2.89-0.17-3.86,1.38-3.83,4.06c0.06,5.41-0.2,10.84,0.17,16.22c0.1,1.44,2,2.76,3.07,4.13c0.36-0.05,0.66,0.06,0.9,0.33   c-0.11,3.75,2.72,2.74,4.7,2.75c19.38,0.05,38.75-0.02,58.13,0.08c3.82,0.02,8.24-0.18,9.48,4.8c0.76,3.08,1.08,6.34,1.1,9.53   c0.1,18.18,0.04,36.37,0.06,54.56c0,2.13-0.63,4.73,2.96,4.57c0.41,0.22,0.81,0.45,1.22,0.67c-0.26,0.92-0.52,1.85-0.94,3.33   c7.56,0,14.68,0.08,21.79-0.05c2.09-0.04,3.49-1.14,2.48-3.61c0.35-0.12,0.7-0.25,1.06-0.37   C937.06,669.73,938.44,669.04,939.81,668.34z M954.01,670.59c-0.18,1.11-0.36,2.21-0.62,3.87c7.29,0,14.29,0.22,21.25-0.19   c1.36-0.08,2.57-2.59,3.85-3.98c0,0-0.06,0.06-0.06,0.06c1.42-0.68,2.85-1.35,4.27-2.03c0.32-1.77,0.92-3.54,0.92-5.31   c0.05-43.71,0.05-87.41,0-131.12c0-1.77-0.6-3.54-0.92-5.31c-0.81-5.14-4.27-6.24-8.87-6.23c-45.17,0.06-90.34,0.04-135.5,0.04   c-1.02,0-2.49-0.37-2.96,0.15c-0.93,1.02-1.31,2.54-1.92,3.86c-0.19,2.54-0.39,5.08-0.58,7.62c-0.3-2.03-0.59-4.07-1.02-7.02   c-1.14,1.42-2.03,2-2.04,2.61c-0.14,6.23-0.28,12.46-0.05,18.68c0.03,0.93,1.93,1.79,2.96,2.68c0.33,0.19,0.65,0.37,0.98,0.56   c-0.27,2.29,0.29,3.87,3.05,3.59c1.59,0.33,3.18,0.94,4.78,0.94c33.19,0.06,66.38,0.06,99.57,0c1.59,0,3.19-0.61,4.78-0.93   c3.87,1.26,4.16,4.33,4.15,7.76c-0.05,34.78-0.02,69.56-0.04,104.34c0,2.73-0.57,5.79,3.83,5.29   C953.8,670.5,954.01,670.59,954.01,670.59z M757.54,723.79c0.33,0,0.67,0,1,0c0-83.21,0-166.42,0-249.62c-0.33,0-0.67,0-1,0   C757.54,557.38,757.54,640.59,757.54,723.79z"></path>
	<path class="st34" d="M143.34,592c2.63-28.71,21.46-54.28,58.01-43.48c0,8.47,0,17.06,0,25.86c-1.94-0.48-3.89-0.98-5.84-1.43   c-11.75-2.71-19.94,1.45-24.33,12.69c-3.59,9.2-3.52,18.69-0.47,27.95c3.87,11.77,13.2,16.6,25.24,13.61c1.8-0.45,3.57-1,5.76-1.62   c0,8.06,0.21,15.83-0.2,23.58c-0.07,1.31-2.59,3.17-4.28,3.61C159.04,662.81,140.29,625.29,143.34,592z"></path>
	<path class="st35" d="M664.99,635.03c-7.33,0-14.45,0-22.25,0c-1.35,5.32-2.74,10.82-4.19,16.53c-15.65,0-31.08,0.09-46.51-0.15   c-1.41-0.02-3.47-1.81-4.08-3.27c-5.09-12.12-9.91-24.35-15.64-36.42c0,13.08,0,26.16,0,39.53c-8.4,0-16.32,0-24.63,0   c0-33.9,0-67.79,0-102.92c13.12,0.68,26.39,0.4,39.33,2.33c11.72,1.74,19.98,9.48,22.69,21.4c2.85,12.58,0.51,23.92-10.33,32.41   c-0.86,0.67-1.51,2.73-1.13,3.69c4.99,12.74,10.19,25.4,15.93,39.56c8.95-33.69,17.53-66.01,26.17-98.52c9.1,0,18.03,0,27.3,0   c8.98,33.87,17.96,67.73,27.13,102.33c-8.33,0-16.23,0.1-24.13-0.14c-0.85-0.03-2.05-1.85-2.39-3.04   C667.02,644,666.07,639.54,664.99,635.03z M572.43,591.94c8.54-0.11,12.65-3.01,13.01-9.04c0.46-7.61-3.42-11.28-13.01-12.11   C572.43,577.85,572.43,584.89,572.43,591.94z M654.14,583.85c-0.32,0-0.65,0.01-0.97,0.01c-1.88,10.19-3.76,20.38-5.69,30.81   c4.53,0,8.39,0,12.57,0C658.05,604.23,656.1,594.04,654.14,583.85z"></path>
	<path class="st35" d="M393.59,549.2c8.18,0,16.12,0,24.38,0c0,14.11,0,27.99,0,41.88c0.3,0.1,0.61,0.2,0.91,0.29   c1.66-3.55,3.36-7.09,4.99-10.66c4.29-9.4,8.62-18.78,12.75-28.24c1.07-2.46,2.2-3.69,5.17-3.59c7.3,0.26,14.61,0.09,22.7,0.09   c-2.39,5.4-4.58,10.41-6.83,15.39c-5.02,11.11-9.96,22.26-15.17,33.27c-1.27,2.69-1.42,4.77-0.13,7.53   c5.76,12.26,11.24,24.65,16.85,36.99c0.61,1.34,1.37,2.61,2.5,4.73c8.82-33.21,17.41-65.53,25.97-97.77c9.27,0,18.09,0,27.22,0   c8.99,33.9,17.97,67.75,27.08,102.06c-8.56,0-16.77,0-25.76,0c-0.92-3.73-2.29-7.88-2.87-12.14c-0.49-3.58-2.16-4.32-5.4-4.2   c-5.92,0.22-11.86,0.06-17.92,0.06c-1.13,4.55-2.48,8.76-3.16,13.08c-0.5,3.16-2.01,3.68-4.8,3.66c-14.1-0.11-28.2-0.14-42.3,0.02   c-2.87,0.03-4.18-0.97-5.3-3.47c-4.64-10.35-9.49-20.61-14.27-30.9c-0.39-0.83-0.85-1.63-2.05-2.23c0,11.97,0,23.95,0,36.22   c-8.3,0-16.23,0-24.54,0C393.59,617.38,393.59,583.48,393.59,549.2z M494.74,614.53c4.3,0,8.25,0,12.52,0   c-2.04-10.81-4-21.24-5.96-31.68c-0.22,0-0.44-0.01-0.65-0.01C498.68,593.36,496.72,603.88,494.74,614.53z"></path>
	<path class="st36" d="M278.13,651.34c-8.3,0-16.23,0-24.63,0c0-13.74,0-27.26,0-41.03c-6.17,0-11.87,0-18,0   c0,13.59,0,27.12,0,40.95c-8.35,0-16.28,0-24.6,0c0-33.87,0-67.78,0-102c7.98,0,16.01,0,24.43,0c0,12.34,0,24.52,0,36.99   c6.06,0,11.75,0,17.89,0c0-12.3,0-24.47,0-36.96c8.5,0,16.55,0,24.9,0C278.13,583.13,278.13,617.06,278.13,651.34z"></path>
	<path class="st34" d="M369.4,651.29c-8.89,0-16.99,0-25.55,0c0-25.84,0-51.4,0-77.37c-5.34,0-10.2,0-15.24,0c0-8.34,0-16.29,0-24.6   c18.62,0,37.34,0,56.27,0c0,8.03,0,15.97,0,24.37c-5.07,0-10.09,0-15.48,0C369.4,599.77,369.4,625.38,369.4,651.29z"></path>
	<path class="st36" d="M295.03,549.1c8.18,0,16.12,0,24.41,0c0,33.95,0,67.83,0,102.09c-8,0-16.05,0-24.41,0   C295.03,617.36,295.03,583.48,295.03,549.1z"></path>
	<path class="st37" d="M279.4,728.26c0-13.12,0.08-25.26-0.05-37.39c-0.04-3.68-3.08-4.41-6.01-5.07c-1.33-0.3-2.59-0.95-3.87-1.43   c0.11-0.43,0.22-0.87,0.33-1.3c7.64,0,15.29,0,24.26,0c-1.6,1.34-2.36,2.54-3.23,2.62c-5.48,0.51-6.31,4.1-6.29,8.62   c0.07,15.63,0.02,31.26,0.02,46.89c0,0.82,0,1.65,0,4.33c-2.83-1.98-5.01-2.91-6.37-4.54c-11.51-13.83-22.87-27.79-34.28-41.71   c-0.59-0.72-1.18-1.44-2.16-2.65c0,13.24-0.22,25.71,0.25,38.16c0.06,1.74,3.36,3.48,5.35,4.99c1.08,0.82,2.55,1.13,3.85,1.68   c-0.12,0.41-0.24,0.83-0.36,1.24c-7.61,0-15.21,0-22.82,0c-0.15-0.35-0.3-0.7-0.44-1.05c0.95-0.58,1.86-1.54,2.87-1.66   c4.5-0.54,6-3.41,6.03-7.41c0.11-12.91,0.2-25.82,0.19-38.73c0-4.32-2.51-6.8-6.56-7.94c-1.33-0.37-2.58-1.01-4.97-1.96   c10.45-3.07,15.44-1.73,21.13,5C257.11,701.77,267.92,714.63,279.4,728.26z"></path>
	<path class="st38" d="M450.41,682.68c9.33,0,18.67-0.18,28,0.05c8.72,0.22,14.8,4.61,16.35,11.22c1.88,8-1.15,14.42-9.03,19.11   c-0.57,0.34-1.16,0.64-2.33,1.28c6.79,10.16,11.97,21.26,23.24,28.23c-6.67,2.34-13.29,0.79-17.24-4.26   c-3.95-5.06-7.54-10.47-10.73-16.05c-2.74-4.79-6.44-5.93-11.78-4.95c0,5.87-0.05,11.6,0.02,17.33c0.04,3.23,1.76,4.91,5.01,5.28   c1.24,0.14,2.41,0.88,3.61,1.34c-0.11,0.44-0.21,0.88-0.32,1.33c-8.38,0-16.76,0-25.13,0c-0.12-0.32-0.24-0.63-0.36-0.95   c0.84-0.55,1.67-1.57,2.52-1.58c5.03-0.09,6.18-3.09,6.17-7.39c-0.05-13.09-0.02-26.17,0.04-39.26c0.02-4.5-1.35-7.6-6.52-7.76   c-0.76-0.02-1.48-1.15-2.22-1.76C449.93,683.48,450.17,683.08,450.41,682.68z M466.78,713.32c2.62,0,4.78,0.13,6.93-0.02   c8.33-0.58,13-6.41,12.32-15.28c-0.59-7.72-6.11-12.29-14.14-11.87c-3.42,0.18-5.27,1.37-5.17,5.19   C466.91,698.43,466.78,705.53,466.78,713.32z"></path>
	<path class="st37" d="M159.65,682.97c8.19,0,16.38,0,24.57,0c0.13,0.41,0.27,0.82,0.4,1.23c-1.23,0.53-2.41,1.3-3.7,1.54   c-3.2,0.59-4.7,2.35-4.69,5.59c0.06,10.2-0.27,20.41,0.19,30.59c0.48,10.84,7.39,17.17,17.58,17.01c8.89-0.14,15-4.56,15.69-13.45   c0.89-11.46,0.42-23.03,0.35-34.54c-0.02-3.63-2.96-4.51-5.93-5.18c-1.25-0.28-2.39-1.01-3.58-1.54c0.14-0.42,0.28-0.84,0.42-1.26   c7.37,0,14.74,0,23.52,0c-1.6,1.36-2.36,2.57-3.27,2.7c-4.43,0.62-5.95,3.25-5.96,7.4c-0.02,9.52,0.14,19.05-0.33,28.54   c-0.45,9.24-3.16,17.93-12.96,21.12c-10.03,3.27-20.2,3.46-28.45-4.87c-5.34-5.39-5.71-12.49-5.85-19.48   c-0.17-8.33-0.08-16.66-0.02-24.99c0.03-4.13-0.7-7.46-5.86-7.7c-0.9-0.04-1.75-1.17-2.63-1.79   C159.31,683.57,159.48,683.27,159.65,682.97z"></path>
	<path class="st39" d="M440.01,742.81c-15.41,0-30.31,0-45.2,0c-0.15-0.39-0.29-0.78-0.44-1.16c1.21-0.58,2.38-1.55,3.63-1.66   c4-0.35,5.74-2.49,5.74-6.32c0.01-13.77,0.02-27.54-0.01-41.32c-0.01-3.61-1.26-6.24-5.43-6.67c-1.01-0.1-1.92-1.23-2.35-2.92   c13.73,0,27.46,0,41.82,0c0.34,4.56,0.68,9.19,1.02,13.83c-0.37,0.27-0.74,0.53-1.11,0.8c-0.96-0.88-2.52-1.62-2.79-2.68   c-1.71-6.73-6.15-8.76-12.6-8.15c-3.16,0.3-6.37,0.05-9.85,0.05c0,7.97,0,15.35,0,22.93c4.34,0,8.88,0.97,12.66-0.3   c3.1-1.04,5.31-4.74,8.43-7.76c0,7.1,0,13.34,0,20.93c-1.55-1.42-2.94-2.07-3.1-2.94c-0.82-4.47-3.77-5.65-7.75-5.62   c-3.37,0.02-6.74,0.01-10.5,0.01c0,7.06-0.28,13.85,0.21,20.58c0.12,1.62,2.67,4.14,4.34,4.35c4.67,0.58,9.62,0.85,14.16-0.13   c2.65-0.57,4.85-3.66,7.02-5.85c1.03-1.04,1.37-2.74,2.3-3.91c0.48-0.61,1.58-0.74,2.4-1.08c0.28,0.84,0.96,1.78,0.79,2.52   C442.41,734.43,441.21,738.48,440.01,742.81z"></path>
	<path class="st40" d="M628.16,742.67c-9.02,0-18.04,0-27.07,0c-0.11-0.42-0.22-0.85-0.34-1.27c1.18-0.48,2.34-1.36,3.53-1.38   c4.68-0.09,6.18-2.77,6.18-6.92c0-15.29,0-30.57,0-46.31c-3.85,0-7.54-0.12-11.21,0.03c-4.2,0.17-5.33,3.52-6.69,6.7   c-0.68,1.58-1.9,2.93-2.87,4.38c-0.52-0.31-1.04-0.62-1.56-0.93c0.46-5.47,0.93-10.93,1.3-15.31c17.24,1.56,33.83,1.43,51.06,0.1   c0.25,4.11,0.57,9.4,0.95,15.68c-1.47-0.66-2.98-0.86-3.56-1.69c-1.86-2.71-2.77-7.23-5.17-8.16c-4.01-1.56-8.89-0.89-13.6-1.17   c0,16.44,0.01,32.2-0.01,47.96c0,3.58,1.92,5.13,5.31,5.54c1.51,0.18,2.95,0.94,4.41,1.44C628.6,741.8,628.38,742.24,628.16,742.67   z"></path>
	<path class="st39" d="M361.83,730.92c4.21-10.59,7.94-19.99,11.68-29.38c0.88-2.2,1.81-4.38,2.65-6.59   c2.56-6.72,2.54-6.69-4.34-9.34c-0.69-0.27-1.08-1.33-2.05-2.62c7.8,0,14.82,0,22.68,0c-0.87,1.18-1.37,2.55-2.03,2.63   c-5.49,0.68-7.38,4.75-9.16,9.12c-6.11,15.06-12.24,30.1-18.51,45.09c-0.68,1.62-2.32,2.85-3.51,4.25   c-1.08-1.5-2.55-2.85-3.19-4.52c-5.79-15.18-11.46-30.41-17.11-45.64c-1.53-4.12-3.21-7.91-8.42-8.37   c-0.53-0.05-0.95-1.36-1.76-2.61c8.41,0,16.12,0,23.83,0c0.2,0.32,0.41,0.65,0.61,0.97c-1.04,0.64-2.02,1.63-3.15,1.85   c-3.03,0.6-4.08,2.15-3.02,5.03C351.79,703.74,356.58,716.68,361.83,730.92z"></path>
	<path class="st41" d="M513.1,726.72c2.02,3.45,3.45,6.78,5.67,9.46c3.39,4.08,8.09,5.54,13.31,4.32c4.21-0.98,6.77-3.9,7.48-8.1   c0.9-5.38-1.13-9.72-5.67-12.67c-4.26-2.77-8.81-5.08-13.01-7.94c-7.3-4.98-9.85-11.54-7.69-18.79c1.99-6.67,8.76-11.3,16.9-11.54   c1.02-0.03,2.04-0.02,3.06,0c10.68,0.14,12.93,2.46,12.41,13.02c-0.04,0.8-0.86,1.55-1.32,2.33c-0.75-0.49-1.8-0.82-2.19-1.52   c-1.06-1.91-1.55-4.16-2.77-5.93c-3.45-5.01-11.39-6.11-15.84-2.39c-4.08,3.41-4.47,10.9-0.37,15.12c2.2,2.26,5.12,3.85,7.81,5.58   c3.69,2.39,7.78,4.26,11.17,7c8.94,7.24,7.75,20.9-2.22,26.71c-8.13,4.74-16.6,3.99-25.01,0.78c-2.73-1.04-5.02-12.59-3.13-15.05   C511.94,726.81,512.63,726.84,513.1,726.72z"></path>
	<path class="st39" d="M671.2,684.14c-1.91,1.1-3.82,2.19-6.25,3.59c4.27,8,8.54,16.02,13.35,25.05c4.49-8.65,8.62-16.59,12.94-24.9   c-2.94-1.43-5.21-2.53-7.48-3.64c0.14-0.4,0.28-0.79,0.42-1.18c6.93,0,13.87,0,22.46,0c-1.96,1.47-2.79,2.1-3.64,2.73   c-2.75,2.03-6.34,3.52-8.1,6.2c-4.82,7.34-10.09,14.78-12.84,22.96c-2.21,6.57-1.24,14.3-1.07,21.51c0.03,1.17,3.17,2.35,4.97,3.35   c1.27,0.71,2.7,1.13,4.05,1.68c-0.16,0.45-0.32,0.9-0.48,1.35c-8.76,0-17.51,0-26.27,0c-0.17-0.44-0.35-0.88-0.52-1.33   c1.31-0.57,2.57-1.41,3.94-1.66c3.3-0.59,4.95-2.18,5.21-5.71c0.65-8.88,0.94-17.52-4.59-25.36c-2.81-3.99-4.79-8.56-7.26-12.8   c-2.69-4.61-4.59-10.11-11.3-10.5c-0.37-0.02-0.65-1.56-1.07-2.66c7.86,0,15.29,0,22.73,0C670.68,683.25,670.94,683.7,671.2,684.14   z"></path>
	<path class="st40" d="M300.12,682.95c8.23,0,16.46,0,24.7,0c0.21,0.31,0.42,0.62,0.64,0.94c-1.04,0.65-2.03,1.75-3.12,1.86   c-4.09,0.41-5.5,2.8-5.5,6.53c0,13.77,0,27.55,0,41.33c0,3.72,1.36,6.19,5.57,6.35c1.06,0.04,2.08,0.9,3.12,1.38   c-0.11,0.42-0.22,0.83-0.34,1.25c-8.38,0-16.77,0-25.15,0c-0.12-0.31-0.25-0.61-0.37-0.92c0.83-0.57,1.65-1.6,2.49-1.62   c5.02-0.13,6.13-3.05,6.09-7.43c-0.13-13.26-0.14-26.51-0.01-39.77c0.04-4.29-1.36-6.8-5.92-7.16c-0.93-0.07-1.79-1.1-2.68-1.69   C299.8,683.66,299.96,683.31,300.12,682.95z"></path>
	<path class="st42" d="M580.41,742.86c-8.09,0-16.18,0-24.27,0c-0.17-0.33-0.35-0.65-0.52-0.98c0.98-0.65,1.92-1.77,2.96-1.87   c3.8-0.37,5.41-2.46,5.42-6.04c0.02-14.08,0-28.16,0.01-42.24c0-3.41-1.66-5.29-5.02-5.96c-1.2-0.24-2.28-1.14-3.41-1.73   c0.17-0.39,0.34-0.78,0.51-1.17c8.09,0,16.18,0,25.96,0c-2.02,1.52-2.86,2.69-3.82,2.79c-4.55,0.45-5.93,3.09-5.9,7.27   c0.08,13.23,0.09,26.47-0.01,39.7c-0.03,4.35,1.14,7.29,6.13,7.44c0.84,0.03,1.64,1.01,2.46,1.55   C580.74,742.03,580.57,742.44,580.41,742.86z"></path>
	<path class="st43" d="M978.42,670.35c0.09-2.04,0.25-4.08,0.26-6.11c0.12-44.04,0.22-88.09,0.31-132.13   c0.02-7.96-0.47-8.46-8.34-8.44c-44.04,0.11-88.08,0.24-132.13,0.39c-1.69,0.01-3.39,0.22-5.08,0.34c0.61-1.32,0.99-2.84,1.92-3.86   c0.47-0.52,1.94-0.15,2.96-0.15c45.17,0,90.34,0.02,135.5-0.04c4.6-0.01,8.06,1.09,8.87,6.23c0,47.25,0,94.5,0,141.75   C981.27,669,979.84,669.67,978.42,670.35z"></path>
	<ellipse class="st44" cx="758.04" cy="598.98" rx="0.71" ry="176.51"></ellipse>
	<path class="st45" d="M935.68,670.42c-0.05-34.01-0.11-68.01-0.16-102.02c1.44,0.68,2.87,1.37,4.31,2.05   c-0.01,32.63-0.01,65.26-0.01,97.88C938.44,669.04,937.06,669.73,935.68,670.42z"></path>
	<path class="st45" d="M934.63,568.06c-13.93,0.16-27.86,0.39-41.79,0.45c-19.72,0.09-39.43,0.05-59.15,0.07   c-0.74-3.99,1.53-4.39,4.74-4.33c25.27,0.41,50.54,0.79,75.8,1c5.56,0.05,11.13-0.54,16.68-0.98   C933.86,564.03,935,565.21,934.63,568.06z"></path>
	<path class="st45" d="M888.72,670.42c-0.04-18.36-0.08-36.72-0.12-55.07c3.06-0.27,4.27,1.16,4.26,4.19   c-0.06,15.81-0.09,31.61,0.02,47.42C892.91,670.19,891.24,670.63,888.72,670.42z"></path>
	<path class="st45" d="M833.83,616.4c0.12,17.98,0.24,35.96,0.36,53.93c-3.22,0.41-4.7-0.88-4.68-4.25c0.08-15.3-0.03-30.6,0.1-45.9   C829.63,617.85,829.52,614.39,833.83,616.4z"></path>
	<path class="st46" d="M835.69,671.18c17.33-0.12,34.67-0.24,52-0.37c-1.22,1.23-2.43,3.51-3.67,3.53   c-15.43,0.25-30.87,0.12-46.31,0.21C834.7,674.57,834.68,673.31,835.69,671.18z"></path>
	<path class="st45" d="M887.69,615.11c-17.34,0.06-34.68,0.11-52.01,0.17c0.35-1.02,0.7-2.05,1.05-3.07   c16.99,0.02,33.99,0.03,50.98,0.05C887.7,613.21,887.7,614.16,887.69,615.11z"></path>
	<path class="st47" d="M982.69,668.32c0-47.25,0-94.5,0-141.75c0.32,1.77,0.92,3.54,0.92,5.31c0.05,43.71,0.05,87.41,0,131.12   C983.61,664.78,983.01,666.55,982.69,668.32z"></path>
	<path class="st47" d="M836.73,553.09c36.38,0,72.75,0,109.13,0c-1.59,0.33-3.19,0.93-4.78,0.93c-33.19,0.05-66.38,0.05-99.57,0   C839.91,554.03,838.32,553.42,836.73,553.09z"></path>
	<path class="st46" d="M954.01,670.59c8.16-0.1,16.32-0.2,24.48-0.3c-1.28,1.39-2.49,3.9-3.85,3.98   c-6.96,0.41-13.96,0.19-21.25,0.19C953.65,672.81,953.83,671.7,954.01,670.59z"></path>
	<path class="st47" d="M939.81,668.34c0-32.63,0.01-65.26,0.01-97.88c0.32,1.6,0.92,3.2,0.92,4.81c0.06,29.43,0.06,58.85,0,88.28   C940.75,665.14,940.14,666.74,939.81,668.34z"></path>
	<path class="st48" d="M833.35,569.42c-0.19,8.14-0.39,16.28-0.58,24.41c-1.07-1.37-2.98-2.69-3.07-4.13   c-0.37-5.39-0.1-10.81-0.17-16.22C829.49,570.8,830.46,569.25,833.35,569.42z"></path>
	<path class="st48" d="M911.29,671.12c7.78-0.11,15.55-0.22,23.33-0.33c1.01,2.47-0.39,3.57-2.48,3.61   c-7.11,0.13-14.23,0.05-21.79,0.05C910.77,672.97,911.03,672.04,911.29,671.12z"></path>
	<path class="st48" d="M832.86,532.01c-0.05,5.65-0.11,11.29-0.16,16.94c-1.03-0.89-2.92-1.75-2.96-2.68   c-0.22-6.22-0.09-12.45,0.05-18.68c0.01-0.6,0.9-1.19,2.04-2.61C832.27,527.94,832.57,529.97,832.86,532.01z"></path>
	<path class="st47" d="M887.71,612.26c-16.99-0.02-33.99-0.03-50.98-0.05c0.58-0.31,1.15-0.88,1.73-0.89   c16.24-0.06,32.48-0.07,48.72-0.08c0.15,0,0.39,0.08,0.42,0.17C887.69,611.68,887.68,611.97,887.71,612.26z"></path>
</g>
</svg>